<svg xmlns="http://www.w3.org/2000/svg" xmlns:xlink="http://www.w3.org/1999/xlink" viewBox="0 0 365.17 95.6"><defs><style>.cls-1{fill:#fff;}.cls-2{fill:#5aaa6f;}.cls-3{fill:url(#linear-gradient);}</style><linearGradient id="linear-gradient" y1="47.8" x2="102.74" y2="47.8" gradientUnits="userSpaceOnUse"><stop offset="0" stop-color="#23568b"></stop><stop offset="1" stop-color="#5aa74c"></stop></linearGradient></defs><g id="Layer_2" data-name="Layer 2"><g id="Layer_1-2" data-name="Layer 1"><path class="cls-1" d="M146.45,47.24c0-5.14-4-9.35-10-9.35H122.23v5.84h13.68c2.82,0,4.17,1.58,4.17,3.51s-1.35,3.48-4.17,3.48H122.23V64.9h6.34V56.55h5.72l6.22,8.35h7.41L141,55.66A9,9,0,0,0,146.45,47.24Z"></path><polygon class="cls-1" points="171.64 54.2 171.64 48.55 163.03 48.55 161.13 54.2 171.64 54.2"></polygon><polygon class="cls-1" points="152.13 64.9 174.54 64.9 174.54 59.26 158.47 59.26 158.47 43.53 174.54 43.53 174.54 37.89 152.13 37.89 152.13 64.9"></polygon><path class="cls-1" d="M192.93,42.88a8.43,8.43,0,0,1,5.83,2.2l3.94-4a14.31,14.31,0,1,0,0,20.44l-3.94-4a8.52,8.52,0,1,1-5.83-14.68Z"></path><path class="cls-1" d="M220.2,37a14.32,14.32,0,1,0,14.45,14.3A14.23,14.23,0,0,0,220.2,37Zm0,22.76a8.45,8.45,0,1,1,8.15-8.46A8.32,8.32,0,0,1,220.2,59.76Z"></path><polygon class="cls-1" points="326.59 64.67 332.93 64.67 332.93 46.48 326.59 56.02 326.59 64.67"></polygon><polygon class="cls-1" points="317.48 51.85 308.09 37.67 302.37 37.67 302.37 64.67 308.71 64.67 308.71 48.8 315.39 58.92 319.56 58.92 333.63 37.67 326.86 37.67 317.48 51.85"></polygon><path class="cls-1" d="M283.43,36.78a14.32,14.32,0,1,0,14.44,14.3A14.22,14.22,0,0,0,283.43,36.78Zm0,22.76a8.45,8.45,0,1,1,8.15-8.46A8.32,8.32,0,0,1,283.43,59.54Z"></path><rect class="cls-1" x="257.86" y="37.67" width="6.3" height="16.03"></rect><polygon class="cls-1" points="238.97 37.67 238.97 64.67 245.3 64.67 245.3 49.41 257.24 64.67 264.73 64.67 243.52 37.67 238.97 37.67"></polygon><polygon class="cls-1" points="364.98 37.67 357.64 37.67 351.61 45.44 358.99 45.44 364.98 37.67"></polygon><polygon class="cls-1" points="344.35 37.67 336.97 37.67 347.29 51.04 336.78 64.67 344.16 64.67 350.99 55.79 357.83 64.67 365.17 64.67 344.35 37.67"></polygon><circle class="cls-2" cx="51.37" cy="51.37" r="14.54"></circle><path class="cls-3" d="M102.74,51.37a51.37,51.37,0,1,0-81.6,41.52.23.23,0,0,0,.37-.19V52c0-16.27,12.76-30,29-30.47a29.86,29.86,0,0,1,7.34,59,.23.23,0,0,0-.09.4L77.05,95.5a.53.53,0,0,0,.57,0A51.34,51.34,0,0,0,102.74,51.37Z"></path></g></g></svg>